<svg width="33" height="42" viewBox="0 0 33 42" fill="none" xmlns="http://www.w3.org/2000/svg">
<path d="M5.03289 33.3605H31.674C31.7591 33.3605 31.8357 33.3515 31.9124 33.3336C31.9209 33.3336 31.9209 33.3336 31.9294 33.3336C32.4998 33.3336 32.9596 32.8501 32.9596 32.2502V1.61109C32.9511 1.0112 32.4913 0.52771 31.9209 0.52771H31.6654H6.67614H5.03289C2.29131 0.52771 0.0605773 2.87355 0.0605773 5.7566C0.0605773 5.79241 0.0690915 5.82823 0.0690915 5.873C0.0690915 8.54116 0.0350345 33.0202 0.0690915 36.2346C0.0690915 36.2972 0.0605773 36.3599 0.0605773 36.4226C0.0605773 39.1982 2.12954 41.4635 4.72638 41.6336C4.77747 41.6425 4.82855 41.6515 4.87964 41.6515H31.9294C32.4998 41.6515 32.9596 41.168 32.9596 40.5681V36.4853C32.9596 35.8854 32.4998 35.4019 31.9294 35.4019C31.3589 35.4019 30.8992 35.8854 30.8992 36.4853V39.4847H5.03289C3.46627 39.4847 2.18914 38.1775 2.12954 36.548C2.12954 36.5211 2.13805 36.4942 2.13805 36.4584C2.13805 36.4136 2.13805 36.3331 2.13805 36.2346C2.21468 34.6319 3.4833 33.3605 5.03289 33.3605ZM5.73106 5.7566C5.73106 5.15671 6.19083 4.67322 6.76129 4.67322C7.33174 4.67322 7.80002 5.15671 7.80002 5.7566V27.7734C7.80002 28.3733 7.34025 28.8568 6.7698 28.8568C6.19935 28.8568 5.73958 28.3733 5.73958 27.7734C5.73106 27.7734 5.73106 5.7566 5.73106 5.7566Z" fill="white"/>
</svg>
