<svg width="55" height="37" viewBox="0 0 55 37" fill="none" xmlns="http://www.w3.org/2000/svg">
<path d="M53.6421 11.1668C53.515 10.7867 53.0646 10.4911 52.6885 10.4911C51.0601 10.4911 49.4319 10.4911 47.8035 10.4911C47.4276 10.4911 46.9771 10.7867 46.8498 11.1668C46.7255 11.5389 46.6326 11.8708 46.5708 12.183L43.3077 2.90739C42.7695 1.37785 41.3441 0.35022 39.7614 0.35022H14.8042C13.2213 0.35022 11.7962 1.37785 11.2577 2.90766L7.99447 12.1841C7.93256 11.8717 7.83963 11.5393 7.71514 11.1668C7.58807 10.7867 7.13752 10.4911 6.7616 10.4911C5.13331 10.4911 3.50501 10.4911 1.87659 10.4911C1.50067 10.4911 1.05011 10.7867 0.923045 11.1668C0.428326 12.6468 0.428597 13.494 0.92318 14.9742C1.05025 15.3543 1.5008 15.6499 1.87672 15.6499C3.50515 15.6499 5.13344 15.6499 6.76174 15.6499C6.76634 15.6499 6.77122 15.6487 6.77596 15.6485L6.70227 15.8583C5.70619 16.1983 4.987 17.1618 4.987 18.2995V26.0669V26.707V35.3022C4.987 35.9855 5.52589 36.5391 6.19088 36.5391H12.2498C12.9147 36.5391 13.4537 35.9855 13.4537 35.3022V29.2806H41.1117V35.3022C41.1117 35.9855 41.6507 36.5391 42.3156 36.5391H48.3745C49.0395 36.5391 49.5784 35.9855 49.5784 35.3022V26.707V26.0669V18.2995C49.5784 17.1621 48.8595 16.1987 47.8638 15.8584L47.79 15.6485C47.7944 15.6487 47.7992 15.6498 47.8037 15.6498C49.4321 15.6498 51.0602 15.6498 52.6887 15.6498C53.0647 15.6498 53.5151 15.3542 53.6422 14.974C54.1368 13.494 54.1365 12.6468 53.6421 11.1668ZM15.2652 4.90223H39.297L43.1046 15.7258H11.4576L15.2652 4.90223ZM15.9354 23.3507H10.8666C9.77909 23.3507 8.89762 22.445 8.89762 21.3276C8.89762 20.2103 9.77895 19.3044 10.8666 19.3044H15.9354C17.0228 19.3044 17.9044 20.2101 17.9044 21.3276C17.9046 22.445 17.0228 23.3507 15.9354 23.3507ZM43.6984 23.3507H38.6295C37.5422 23.3507 36.6606 22.445 36.6606 21.3276C36.6606 20.2103 37.5422 19.3044 38.6295 19.3044H43.6984C44.7859 19.3044 45.6674 20.2101 45.6674 21.3276C45.6674 22.445 44.7859 23.3507 43.6984 23.3507Z" fill="white"/>
</svg>
