<svg width="36" height="32" viewBox="0 0 36 32" fill="none" xmlns="http://www.w3.org/2000/svg">
<path d="M35.0054 12.8157C34.8281 12.8157 34.6894 12.8157 34.5507 12.8157C32.647 12.8157 30.751 12.8081 28.8473 12.8157C25.3713 12.8309 22.6275 15.5891 22.6738 19.0255C22.7123 22.2332 25.4252 24.9381 28.6777 24.9761C30.6277 24.999 32.5853 24.9838 34.5352 24.9838C34.674 24.9838 34.8127 24.9838 34.9746 24.9838C34.99 25.0828 35.0054 25.1666 35.0054 25.2504C35.0054 26.1724 35.0131 27.1019 35.0054 28.0239C34.9823 29.7306 33.6412 31.0564 31.9071 31.064C28.8627 31.0792 25.8183 31.0716 22.7739 31.0716C17.0552 31.0716 11.3441 31.0716 5.62528 31.0716C2.58861 31.0716 0.469116 28.9763 0.469116 25.9743C0.469116 19.1702 0.469116 12.3585 0.469116 5.55448C0.469116 2.81152 2.66569 0.640015 5.4326 0.640015C12.9857 0.640015 20.5388 0.640015 28.092 0.640015C29.4562 0.640015 30.3656 1.77529 29.9957 2.99439C29.7567 3.77918 29.04 4.28967 28.1613 4.28967C25.8337 4.28967 23.5138 4.28967 21.1863 4.28967C15.9684 4.28967 10.7583 4.28967 5.5405 4.28967C4.55397 4.28967 3.90656 5.13542 4.27651 5.96593C4.50772 6.49928 4.95475 6.72786 5.5405 6.72786C8.37677 6.72024 11.2208 6.72786 14.057 6.72786C19.93 6.72786 25.7952 6.72786 31.6681 6.72786C33.7337 6.72786 35.0131 7.98505 35.0131 10.0118C35.0054 10.9261 35.0054 11.8404 35.0054 12.8157Z" fill="white"/>
</svg>
